<svg width="17" height="18" viewBox="0 0 17 18" fill="none" xmlns="http://www.w3.org/2000/svg">
<path d="M12.467 12.6846C12.6641 12.8818 12.6641 13.2014 12.467 13.3985C12.3688 13.4967 12.2396 13.5465 12.1104 13.5465C11.9812 13.5465 11.852 13.4974 11.7538 13.3985L8.07355 9.71825L4.39325 13.3985C4.29503 13.4967 4.16585 13.5465 4.03667 13.5465C3.90749 13.5465 3.77831 13.4974 3.68008 13.3985C3.48294 13.2014 3.48294 12.8818 3.68008 12.6846L7.36035 9.00438L3.68008 5.32413C3.48294 5.127 3.48294 4.80739 3.68008 4.61026C3.87721 4.41312 4.1968 4.41312 4.39394 4.61026L8.07421 8.29052L11.7544 4.61026C11.9516 4.41312 12.2712 4.41312 12.4683 4.61026C12.6654 4.80739 12.6654 5.127 12.4683 5.32413L8.78807 9.00438L12.467 12.6846Z" fill="#E45F35"/>
</svg>
