<svg width="750" height="750" viewBox="0 0 750 750" fill="none" xmlns="http://www.w3.org/2000/svg">
<circle cx="374" cy="377" r="284.472" fill="black"/>
<circle cx="375.887" cy="377.186" r="237.605" transform="rotate(24.1889 375.887 377.186)" stroke="url(#paint0_linear_492_10)" stroke-width="16.1022" stroke-linecap="round" stroke-dasharray="42.94 42.94"/>
<circle cx="374.822" cy="375.13" r="267.816" transform="rotate(36.5611 374.822 375.13)" stroke="url(#paint1_linear_492_10)" stroke-width="32.2044" stroke-linecap="round" stroke-dasharray="53.67 53.67"/>
<circle cx="375.26" cy="377.262" r="217.666" transform="rotate(35.1558 375.26 377.262)" stroke="url(#paint2_linear_492_10)" stroke-width="10.7348" stroke-linecap="round" stroke-dasharray="39.29 39.29"/>
<path d="M271.768 293.201C278.28 293.201 283.791 294.31 288.3 296.529C292.808 298.676 296.243 301.753 298.605 305.761C300.967 309.697 302.147 314.384 302.147 319.823C302.147 323.044 301.646 326.3 300.645 329.592C299.714 332.812 298.176 335.746 296.029 338.394C293.953 341.042 291.126 343.189 287.548 344.835C284.041 346.41 279.712 347.197 274.559 347.197H263.395V372.209H247.829V293.201H271.768ZM274.452 332.061C276.813 332.061 278.781 331.667 280.356 330.88C281.93 330.021 283.147 328.984 284.006 327.767C284.936 326.479 285.58 325.155 285.938 323.795C286.367 322.435 286.582 321.255 286.582 320.253C286.582 319.465 286.439 318.428 286.153 317.14C285.938 315.78 285.437 314.42 284.65 313.06C283.862 311.701 282.646 310.556 281 309.625C279.425 308.695 277.278 308.23 274.559 308.23H263.395V332.061H274.452ZM313.606 325.298H328.635V372.209H313.606V325.298ZM313.284 308.659C313.284 306.441 314.143 304.616 315.86 303.184C317.649 301.753 319.546 301.037 321.55 301.037C323.554 301.037 325.378 301.753 327.024 303.184C328.742 304.616 329.601 306.441 329.601 308.659C329.601 310.878 328.742 312.702 327.024 314.134C325.378 315.494 323.554 316.173 321.55 316.173C319.546 316.173 317.649 315.494 315.86 314.134C314.143 312.702 313.284 310.878 313.284 308.659ZM383.938 368.022C381.863 369.668 379.251 370.992 376.102 371.994C373.024 372.996 369.983 373.497 366.977 373.497C361.61 373.497 356.922 372.531 352.915 370.599C348.978 368.595 345.901 365.768 343.683 362.118C341.536 358.397 340.462 353.924 340.462 348.7C340.462 343.476 341.643 339.038 344.005 335.389C346.366 331.667 349.444 328.84 353.237 326.908C357.101 324.976 361.145 324.01 365.367 324.01C369.589 324.01 373.239 324.582 376.316 325.727C379.465 326.872 382.149 328.375 384.368 330.236L377.068 339.897C376.066 339.11 374.67 338.323 372.881 337.536C371.164 336.677 369.124 336.247 366.762 336.247C364.687 336.247 362.791 336.784 361.073 337.858C359.355 338.931 357.996 340.398 356.994 342.259C355.992 344.12 355.491 346.267 355.491 348.7C355.491 350.99 356.028 353.101 357.101 355.033C358.175 356.966 359.642 358.504 361.502 359.649C363.435 360.723 365.689 361.259 368.265 361.259C369.911 361.259 371.414 361.045 372.774 360.615C374.205 360.114 375.422 359.435 376.424 358.576L383.938 368.022ZM399.881 304.687H414.91V325.083H426.289V336.784H414.91V372.209H399.881V336.784H392.581V325.083H399.881V304.687ZM451.253 325.298L452.648 338.18L452.326 336.247C453.686 333.456 455.547 331.095 457.908 329.162C460.27 327.159 462.596 325.62 464.886 324.547C467.248 323.473 469.037 322.936 470.253 322.936L469.502 337.965C465.995 337.536 462.989 338.108 460.485 339.683C457.98 341.257 456.048 343.332 454.688 345.909C453.328 348.485 452.648 351.133 452.648 353.852V372.209H437.727V325.298H451.253ZM476.01 348.163C476.01 343.368 477.119 339.074 479.338 335.281C481.628 331.488 484.812 328.518 488.892 326.371C492.971 324.153 497.658 323.044 502.954 323.044C508.322 323.044 512.973 324.153 516.909 326.371C520.846 328.518 523.851 331.488 525.927 335.281C528.074 339.074 529.147 343.368 529.147 348.163C529.147 352.958 528.074 357.288 525.927 361.152C523.851 364.945 520.846 367.951 516.909 370.169C512.973 372.388 508.25 373.497 502.74 373.497C497.587 373.497 492.971 372.495 488.892 370.491C484.884 368.488 481.735 365.589 479.445 361.796C477.155 358.003 476.01 353.459 476.01 348.163ZM491.146 348.27C491.146 350.704 491.647 352.922 492.649 354.926C493.651 356.858 495.01 358.397 496.728 359.542C498.446 360.687 500.378 361.259 502.525 361.259C504.886 361.259 506.926 360.687 508.644 359.542C510.361 358.397 511.685 356.858 512.616 354.926C513.546 352.922 514.011 350.704 514.011 348.27C514.011 345.766 513.546 343.547 512.616 341.615C511.685 339.683 510.361 338.144 508.644 336.999C506.926 335.854 504.886 335.281 502.525 335.281C500.378 335.281 498.446 335.854 496.728 336.999C495.01 338.144 493.651 339.683 492.649 341.615C491.647 343.547 491.146 345.766 491.146 348.27ZM331.381 479.209L367.021 397.088H367.88L403.519 479.209H385.485L362.727 421.456L373.998 413.727L346.732 479.209H331.381ZM355.749 450.654H379.473L384.948 463.751H350.919L355.749 450.654ZM415.036 400.201H430.602V479.209H415.036V400.201Z" fill="white"/>
<defs>
<linearGradient id="paint0_linear_492_10" x1="375.887" y1="139.581" x2="375.887" y2="614.79" gradientUnits="userSpaceOnUse">
<stop stop-color="#2289E2"/>
<stop offset="0.520833" stop-color="#A20FC6"/>
<stop offset="1" stop-color="#BD125E"/>
</linearGradient>
<linearGradient id="paint1_linear_492_10" x1="374.822" y1="107.314" x2="374.822" y2="642.946" gradientUnits="userSpaceOnUse">
<stop stop-color="#2289E2"/>
<stop offset="0.520833" stop-color="#A20FC6"/>
<stop offset="1" stop-color="#BD125E"/>
</linearGradient>
<linearGradient id="paint2_linear_492_10" x1="375.26" y1="159.596" x2="375.26" y2="594.928" gradientUnits="userSpaceOnUse">
<stop stop-color="#2289E2"/>
<stop offset="0.520833" stop-color="#A20FC6"/>
<stop offset="1" stop-color="#BD125E"/>
</linearGradient>
</defs>
</svg>
